<svg width="212" height="215" viewBox="0 0 212 215" fill="none" xmlns="http://www.w3.org/2000/svg">
<path d="M68.7126 209.079C83.5693 218.034 94.168 214.316 98.2256 207.135C106.072 193.249 132.163 164.852 173.509 155.254C228.269 142.542 216.833 108.79 183.17 91.0779C149.506 73.3663 124.336 48.8588 128.145 22.2114C131.955 -4.43608 94.2093 -13.6223 77.4233 37.6384C66.5758 70.7651 47.1364 79.6398 34.7402 81.7731C23.0571 83.7837 10.2772 86.3063 4.0451 96.3908C-3.51714 108.627 -0.878283 121.004 30.7831 129.494C75.6505 141.524 35.4124 189.006 68.7126 209.079Z" fill="#E9F8F4"/>
<path d="M30.1119 151.018C30.7407 150.658 37.837 147.653 73.1399 164.111C73.037 164.251 72.9934 164.318 72.9934 164.318C72.9934 164.318 36.2925 176.677 29.1017 161.451C26.9544 156.918 27.5697 153.797 30.0506 151.053L30.1119 151.018Z" fill="#1A876A"/>
<path d="M148.768 157.246C141.098 163.694 129.07 168.374 117.464 162.15C119.298 160.978 121.192 159.771 123.124 158.523C134.78 151.034 145.046 156.045 148.768 157.246Z" fill="#1A876A"/>
<path d="M162.506 77.9423C170.342 143.194 151.72 155.037 149.647 156.836C149.047 157.356 148.803 157.318 147.896 157.085L147.88 157.094C144.04 156.075 134.78 151.033 123.124 158.522C121.192 159.77 119.297 160.977 117.464 162.149C105.573 169.69 95.9716 175.004 89.0541 171.92C83.1865 168.927 77.896 166.336 73.1398 164.111C37.8369 147.653 30.7406 150.657 30.1118 151.017C30.8414 150.62 37.5338 146.91 46.545 140.387C46.5757 140.369 46.6063 140.352 46.6129 140.328C58.6577 131.599 74.7881 117.843 86.3826 100.148C94.2756 88.1148 101.997 57.6105 116.896 51.6252C147.516 40.2026 161.235 64.6697 162.506 77.9423Z" fill="#23B48D"/>
<path d="M128.649 76.7977C129.6 74.288 129.507 71.9265 128.443 71.5233C127.378 71.1201 125.744 72.8277 124.794 75.3375C123.843 77.8473 123.936 80.2087 125.001 80.6119C126.065 81.0152 127.699 79.3075 128.649 76.7977Z" fill="white"/>
<path d="M148.146 79.9996C148.819 77.4018 148.472 75.0641 147.37 74.7784C146.268 74.4926 144.828 76.3669 144.155 78.9647C143.481 81.5625 143.828 83.9001 144.931 84.1859C146.033 84.4717 147.472 82.5974 148.146 79.9996Z" fill="white"/>
<path d="M136.278 89.5382C136.119 89.5381 135.964 89.4833 135.839 89.383C135.715 89.2827 135.629 89.143 135.595 88.9869C135.47 88.4219 134.915 86.75 134.035 86.5015C133.154 86.253 131.427 87.2177 130.729 87.7238C130.578 87.8327 130.391 87.8774 130.208 87.8481C130.024 87.8188 129.86 87.7178 129.751 87.5674C129.642 87.4171 129.598 87.2296 129.627 87.0462C129.656 86.8629 129.757 86.6987 129.908 86.5898C130.183 86.3905 132.649 84.6557 134.415 85.154C136.256 85.6737 136.896 88.382 136.963 88.6891C136.985 88.7914 136.984 88.8973 136.96 88.9992C136.936 89.101 136.889 89.1962 136.824 89.2776C136.758 89.3591 136.675 89.4248 136.58 89.4699C136.486 89.515 136.383 89.5383 136.278 89.5382H136.278Z" fill="white"/>
</svg>
