<svg width="33" height="32" viewBox="0 0 33 32" fill="none" xmlns="http://www.w3.org/2000/svg">
<path d="M12.5265 3.78672L5.33984 9.38672C4.13984 10.3201 3.1665 12.3067 3.1665 13.8134V23.6934C3.1665 26.7867 5.6865 29.3201 8.77984 29.3201H24.2198C27.3132 29.3201 29.8332 26.7867 29.8332 23.7067V14.0001C29.8332 12.3867 28.7532 10.3201 27.4332 9.40005L19.1932 3.62672C17.3265 2.32005 14.3265 2.38672 12.5265 3.78672Z" stroke="#9E9E9E" stroke-width="2" stroke-linecap="round" stroke-linejoin="round"/>
<path d="M12.5265 3.78672L5.33984 9.38672C4.13984 10.3201 3.1665 12.3067 3.1665 13.8134V23.6934C3.1665 26.7867 5.6865 29.3201 8.77984 29.3201H24.2198C27.3132 29.3201 29.8332 26.7867 29.8332 23.7067V14.0001C29.8332 12.3867 28.7532 10.3201 27.4332 9.40005L19.1932 3.62672C17.3265 2.32005 14.3265 2.38672 12.5265 3.78672Z" stroke="black" stroke-opacity="0.2" stroke-width="2" stroke-linecap="round" stroke-linejoin="round"/>
<path d="M12.5265 3.78672L5.33984 9.38672C4.13984 10.3201 3.1665 12.3067 3.1665 13.8134V23.6934C3.1665 26.7867 5.6865 29.3201 8.77984 29.3201H24.2198C27.3132 29.3201 29.8332 26.7867 29.8332 23.7067V14.0001C29.8332 12.3867 28.7532 10.3201 27.4332 9.40005L19.1932 3.62672C17.3265 2.32005 14.3265 2.38672 12.5265 3.78672Z" stroke="black" stroke-opacity="0.2" stroke-width="2" stroke-linecap="round" stroke-linejoin="round"/>
<path d="M12.5265 3.78672L5.33984 9.38672C4.13984 10.3201 3.1665 12.3067 3.1665 13.8134V23.6934C3.1665 26.7867 5.6865 29.3201 8.77984 29.3201H24.2198C27.3132 29.3201 29.8332 26.7867 29.8332 23.7067V14.0001C29.8332 12.3867 28.7532 10.3201 27.4332 9.40005L19.1932 3.62672C17.3265 2.32005 14.3265 2.38672 12.5265 3.78672Z" stroke="black" stroke-opacity="0.2" stroke-width="2" stroke-linecap="round" stroke-linejoin="round"/>
<path d="M12.5265 3.78672L5.33984 9.38672C4.13984 10.3201 3.1665 12.3067 3.1665 13.8134V23.6934C3.1665 26.7867 5.6865 29.3201 8.77984 29.3201H24.2198C27.3132 29.3201 29.8332 26.7867 29.8332 23.7067V14.0001C29.8332 12.3867 28.7532 10.3201 27.4332 9.40005L19.1932 3.62672C17.3265 2.32005 14.3265 2.38672 12.5265 3.78672Z" stroke="black" stroke-opacity="0.2" stroke-width="2" stroke-linecap="round" stroke-linejoin="round"/>
<path d="M16.5 23.9868V19.9868" stroke="#9E9E9E" stroke-width="2" stroke-linecap="round" stroke-linejoin="round"/>
<path d="M16.5 23.9868V19.9868" stroke="black" stroke-opacity="0.2" stroke-width="2" stroke-linecap="round" stroke-linejoin="round"/>
<path d="M16.5 23.9868V19.9868" stroke="black" stroke-opacity="0.2" stroke-width="2" stroke-linecap="round" stroke-linejoin="round"/>
<path d="M16.5 23.9868V19.9868" stroke="black" stroke-opacity="0.2" stroke-width="2" stroke-linecap="round" stroke-linejoin="round"/>
<path d="M16.5 23.9868V19.9868" stroke="black" stroke-opacity="0.2" stroke-width="2" stroke-linecap="round" stroke-linejoin="round"/>
</svg>
