<svg width="83" height="33" viewBox="0 0 83 33" fill="none" xmlns="http://www.w3.org/2000/svg">
<path d="M81.9676 20.5334C81.4868 19.3047 80.8457 18.2362 79.991 17.328C79.1362 16.4199 78.1212 15.7254 76.9993 15.1912C75.8774 14.6569 74.5953 14.4432 73.2063 14.4432C68.238 14.4432 64.8724 17.9157 63.1629 24.8606C62.8958 26.0359 62.3616 26.9441 61.5602 27.4783C60.7589 28.0125 59.6905 28.2796 58.2481 28.2796H57.5536C56.4851 28.2262 55.5769 27.9591 54.829 27.4783C54.0811 26.9975 53.6003 26.1427 53.44 24.8072L54.0277 22.4032C53.1729 22.0826 52.0511 21.4416 50.6087 20.48C49.1663 19.5184 47.5636 18.3965 45.7472 17.1678C43.7706 15.8322 41.9008 14.7638 40.1379 14.0693C38.3749 13.3748 36.6654 13.0008 34.9559 13.0008C33.6203 13.0008 32.3916 13.1611 31.2698 13.5351C30.1479 13.909 29.1863 14.4432 28.3315 15.0843C27.5302 15.7788 26.8891 16.5801 26.4083 17.5417C25.9275 18.5033 25.7138 19.5718 25.7138 20.7471C25.7138 22.0292 25.9809 23.0977 26.4617 24.0058L29.7205 23.1511C29.7205 23.1511 29.5068 22.6169 29.4 22.2429C29.2931 21.8689 29.2397 21.495 29.2397 21.1745C29.2397 19.7855 29.7739 18.6636 30.789 17.8088C31.804 16.9541 33.193 16.5267 34.8491 16.5267C36.1312 16.5267 37.4668 16.8472 38.9092 17.4883C40.3516 18.1294 41.9542 19.0376 43.824 20.2129C44.839 20.8539 45.7472 21.4416 46.4417 21.9758C47.1362 22.4566 47.7773 22.884 48.3649 23.2579C46.7622 23.5785 45.0527 24.0593 43.1295 24.5935C41.2063 25.1811 39.2297 25.7154 37.1462 26.2496C35.0627 26.7838 32.9258 27.2646 30.7355 27.6386C28.5452 28.0125 26.3549 28.2262 24.1646 28.2262H22.188C21.1195 28.2262 20.1579 28.1194 19.3031 27.8523C18.4484 27.6386 17.8607 27.2646 17.4334 26.7838C18.1813 25.5017 18.5552 24.0058 18.5552 22.2429C18.5552 19.5718 17.6471 17.2746 15.8841 15.3514C14.1212 13.4282 11.6637 12.0927 8.67209 11.3447L18.5018 3.06427L15.991 0.5L3.75723 11.2379L4.98595 14.4432C6.42835 14.4432 7.81733 14.7104 9.04605 15.0843C10.2748 15.4583 11.3432 15.9925 12.198 16.687C13.0527 17.3815 13.7472 18.1294 14.2814 19.0376C14.7622 19.9457 15.0294 20.9608 15.0294 21.9758C15.0294 24.1661 14.1746 25.7688 12.4651 26.7838C10.7556 27.7988 8.03102 28.2796 4.34488 28.2796C3.54354 28.2796 2.74221 28.2796 1.9943 28.2796C1.24638 28.2796 0.605313 28.2262 0.124512 28.1728L0.338201 31.9124C0.97927 31.9658 1.56692 32.0192 2.20798 32.0726C2.79563 32.0726 3.54354 32.126 4.34488 32.126C9.52685 32.126 13.3198 31.1644 15.7773 29.1878C16.2046 30.096 16.9526 30.7905 18.1813 31.3247C19.41 31.8589 20.7455 32.126 22.2948 32.126H24.3783C26.8891 32.126 29.4534 31.8589 32.0177 31.3781C34.5819 30.8973 37.0394 30.3097 39.39 29.6686C41.7405 29.0275 43.8774 28.3865 45.9075 27.7454C47.8841 27.1043 49.6471 26.6235 51.036 26.303C51.1963 28.3331 51.9442 29.7755 53.1195 30.6836C54.3482 31.5918 55.844 32.0726 57.7673 32.126H58.8357C61.8274 32.126 63.9108 31.2179 65.193 29.4549C66.2614 30.4165 67.5435 31.1644 69.0394 31.6987C70.5352 32.2329 72.1379 32.5 73.794 32.5C76.5185 32.5 78.7622 31.7521 80.4183 30.3097C82.0744 28.8673 82.8758 26.8907 82.8758 24.4866C82.8758 23.0442 82.6621 21.7087 82.1813 20.48L81.9676 20.5334ZM77.6938 27.5317C76.6788 28.3331 75.2898 28.707 73.4734 28.707C72.0844 28.707 70.7489 28.4933 69.5202 28.0659C68.2915 27.6386 67.223 27.0509 66.3148 26.303C67.0627 23.4182 68.0243 21.3347 69.0928 20.0526C70.1612 18.7705 71.5502 18.1294 73.2063 18.1294C74.0611 18.1294 74.8624 18.2897 75.5569 18.6102C76.3048 18.9307 76.9459 19.3581 77.4801 19.8923C78.0143 20.4265 78.4417 21.0676 78.7622 21.8155C79.0828 22.5634 79.243 23.3648 79.243 24.273C79.243 25.6619 78.7622 26.7304 77.7472 27.5317H77.6938Z" fill="#23B48D"/>
</svg>
