<svg width="25" height="24" viewBox="0 0 25 24" fill="none" xmlns="http://www.w3.org/2000/svg">
<path d="M10.7421 10.6418L9.18408 15.3159L13.8582 13.7579C14.0468 13.695 14.1948 13.547 14.2576 13.3584L15.8157 8.68433L11.1416 10.2424C10.953 10.3052 10.805 10.4532 10.7421 10.6418Z" stroke="black" stroke-linecap="round" stroke-linejoin="round"/>
<circle cx="12.5601" cy="11.9511" r="0.742996" transform="rotate(45 12.5601 11.9511)" stroke="black" stroke-linecap="round" stroke-linejoin="round"/>
<circle cx="12.5" cy="12" r="9" stroke="black"/>
<path d="M19.7631 12C19.7631 16.0113 16.5113 19.2631 12.5 19.2631M19.7631 12C19.7631 7.98864 16.5113 4.73682 12.5 4.73682M19.7631 12H17.8684M12.5 19.2631C8.48864 19.2631 5.23682 16.0113 5.23682 12M12.5 19.2631V17.3684M5.23682 12C5.23682 7.98864 8.48864 4.73682 12.5 4.73682M5.23682 12H7.13155M12.5 4.73682V6.63155" stroke="black" stroke-linecap="round"/>
</svg>
