<svg width="18" height="18" viewBox="0 0 18 18" fill="none" xmlns="http://www.w3.org/2000/svg">
<path d="M10.5296 14.2105C10.3141 14.6878 10.1705 15.206 10.1191 15.75L14.6809 14.7801C14.8964 14.3029 15.0401 13.7846 15.0914 13.2407L10.5296 14.2105Z" fill="#272727"/>
<path d="M14.679 11.8764C14.8945 11.3992 15.0382 10.8809 15.0895 10.337L11.5335 11.0913V9.63916L14.6738 8.97208C14.8894 8.49487 15.033 7.9766 15.0844 7.43268L11.5283 8.18699V2.96326C10.9844 3.27114 10.5021 3.67652 10.1069 4.15374V8.48974L8.68555 8.79249V2.25C8.14162 2.55788 7.65928 2.96326 7.26416 3.44048V9.09011L4.08272 9.76744C3.8672 10.2447 3.72352 10.7629 3.67221 11.3069L7.26416 10.5423V12.3742L3.41051 13.1901C3.19499 13.6673 3.05131 14.1855 3 14.7295L7.03325 13.8725C7.36166 13.8058 7.64388 13.6108 7.82861 13.344L8.56753 12.2459C8.6445 12.133 8.69068 11.9945 8.69068 11.8508V10.2395L10.1121 9.93678V12.8411L14.6738 11.8713L14.679 11.8764Z" fill="#272727"/>
</svg>
